<?xml version="1.0" encoding="UTF-8"?>
<svg version="1.1" xmlns="http://www.w3.org/2000/svg" width="500" height="500">
<path d="M0 0 C165 0 330 0 500 0 C500 165 500 330 500 500 C335 500 170 500 0 500 C0 335 0 170 0 0 Z " fill="#000000" transform="translate(0,0)"/>
<path d="M0 0 C4.62 0 9.24 0 14 0 C13.95174072 1.09763672 13.90348145 2.19527344 13.85375977 3.32617188 C11.85527492 26.52977712 11.85527492 26.52977712 20.03076172 47.06079102 C22.63634195 49.46755564 25.29511254 51.67371441 28.20019531 53.70996094 C30.56912235 55.40792763 32.46997875 57.42114153 34.4375 59.5625 C40.07047812 65.08691965 46.03527318 70.1408534 52.25 75 C53.24515625 75.78375 54.2403125 76.5675 55.265625 77.375 C57.78704663 79.21344037 57.78704663 79.21344037 60.20703125 78.89453125 C66.07939234 75.96474761 68.77368778 69.12969761 71.0546875 63.35546875 C73.98739508 52.94556872 72.58833721 40.50225042 67.359375 30.97265625 C61.37450528 22.28771599 52.0871192 17.40987748 42 15 C35.04814832 13.86682954 28.02909414 13.36765382 21 13 C21 12.01 21 11.02 21 10 C22.03447266 9.88785156 22.03447266 9.88785156 23.08984375 9.7734375 C30.55747444 8.72858382 36.57352782 6.42647218 42 1 C44.35313555 0.92728259 46.70833668 0.91629132 49.0625 0.9375 C50.99802734 0.95103516 50.99802734 0.95103516 52.97265625 0.96484375 C53.97167969 0.97644531 54.97070312 0.98804688 56 1 C54.66667905 4.99996286 52.5042173 5.83782337 49 8 C50.21623047 8.32871094 50.21623047 8.32871094 51.45703125 8.6640625 C64.74189009 12.46857388 76.51380897 17.81784869 83.85546875 30.10546875 C89.2858722 40.69540043 90.78981044 51.50095729 88.31640625 63.24609375 C85.22043127 72.30278405 79.96087239 79.53633278 73 86 C76.71429898 87.1161656 80.39161508 87.3124195 84.25 87.5625 C86.14492188 87.68818359 86.14492188 87.68818359 88.078125 87.81640625 C89.04234375 87.87699219 90.0065625 87.93757813 91 88 C91 88.66 91 89.32 91 90 C84.84569147 92.16046355 79.16827086 92.23903003 72.6875 92.3125 C65.00019577 92.49331619 58.17961871 93.13851202 50.875 95.5625 C33.83038006 101.15073954 12.45327329 99.45127725 -3.671875 91.71875 C-14.95849089 85.40946161 -22.51353548 76.43676859 -26.8125 64.3125 C-28.5951965 57.97291076 -28.25389138 51.52594875 -28 45 C-27.01 45 -26.02 45 -25 45 C-24.9484375 45.680625 -24.896875 46.36125 -24.84375 47.0625 C-23.50655019 58.48948021 -18.52737169 70.69417059 -9.93359375 78.640625 C-8.12567562 79.91164623 -6.30047959 80.9961013 -4.37915039 82.08496094 C-3.26403076 82.71692383 -2.14891113 83.34888672 -1 84 C2.19560963 58.24319235 2.19560963 58.24319235 -5.65258789 35.15771484 C-8.10142029 32.95210663 -10.5936733 30.95663806 -13.34277344 29.13769531 C-15.51437112 27.64688134 -17.05309629 25.8655687 -18.6875 23.8125 C-22.44621039 19.43211995 -26.40590841 15.23867942 -30.3515625 11.02734375 C-33.20086803 7.88339172 -35.58798874 4.48740256 -38 1 C-22.08328826 -0.06111412 -22.08328826 -0.06111412 -17.4921875 2.27734375 C-15.73712375 4.07730447 -14.3889527 5.90667813 -13 8 C-11.80618538 9.36698334 -10.5975006 10.72110927 -9.375 12.0625 C-6.53588205 15.33787266 -3.77620888 18.66854935 -1 22 C-0.67 14.74 -0.34 7.48 0 0 Z " fill="#F9F9F9" transform="translate(245,261)"/>
<path d="M0 0 C8.39802582 -0.0932198 16.79583072 -0.16402559 25.1942482 -0.20724869 C29.09518125 -0.22800741 32.99575692 -0.25610641 36.89648438 -0.30175781 C40.67017818 -0.3456395 44.44353112 -0.36922486 48.21746063 -0.37950897 C49.64779771 -0.38682534 51.07811892 -0.40110946 52.50830841 -0.42292023 C65.30344556 -0.61005522 77.02870556 1.40934633 87 10 C94.20332473 17.31766322 98.08613149 25.56818292 98.09765625 35.8515625 C98.07271456 37.56783581 98.04267995 39.28407617 98 41 C99.21562622 40.9685791 99.21562622 40.9685791 100.45581055 40.93652344 C103.52917078 40.86741493 106.60212887 40.81775541 109.67602539 40.78027344 C111.63389776 40.75080673 113.59141099 40.69992242 115.54882812 40.6484375 C128.85387431 40.51301718 140.51854609 43.5117406 151 52 C156.99864153 58.33591455 159 63.17988571 159 72 C153.72 72 148.44 72 143 72 C142.773125 70.68 142.54625 69.36 142.3125 68 C140.93623601 62.0455517 138.94569724 57.28016643 134.01171875 53.4609375 C126.48879398 49.1368362 118.48527147 48.79099988 110 48 C110 56.25 110 64.5 110 73 C105.38 73 100.76 73 96 73 C95.67 67.39 95.34 61.78 95 56 C93.948125 58.0109375 93.948125 58.0109375 92.875 60.0625 C91.6796875 62.34765625 91.6796875 62.34765625 90 65 C89.45496826 65.91833618 89.45496826 65.91833618 88.89892578 66.85522461 C86.72039371 69.99487377 85.18492084 71.74940688 81.35986328 72.55834961 C78.25332973 72.68904107 75.22914647 72.61143924 72.125 72.4375 C71.05507812 72.40591797 69.98515625 72.37433594 68.8828125 72.34179688 C66.25236635 72.25959543 63.62762146 72.14477691 61 72 C62.99146684 70.00853316 64.21899622 69.39651519 66.75 68.3125 C73.24218921 65.14299202 77.38310453 59.67308344 80 53 C80.79245941 49.68562574 81.43553604 46.36022073 82 43 C81.34 43 80.68 43 80 43 C80 42.34 80 41.68 80 41 C80.66 41 81.32 41 82 41 C81.09568469 30.46004912 79.29467369 19.20481745 70.875 11.875 C65.79494459 8.56192038 62.25639602 7.68278978 56.171875 7.5859375 C55.50752441 7.56829346 54.84317383 7.55064941 54.15869141 7.5324707 C51.68936872 7.46965312 49.21964942 7.42329435 46.75 7.375 C41.2225 7.25125 35.695 7.1275 30 7 C30 28.78 30 50.56 30 73 C25.38 73 20.76 73 16 73 C15.9906543 71.1835498 15.98130859 69.36709961 15.97167969 67.49560547 C15.93609596 61.48039321 15.88226258 55.46557392 15.81609726 49.45063591 C15.77666111 45.80528898 15.74445412 42.16018219 15.72900391 38.51464844 C15.71381121 34.99356924 15.67932118 31.47315041 15.63169098 27.95236588 C15.60972868 25.96174418 15.60752851 23.97093606 15.60565186 21.98019409 C15.56134235 13.15328533 15.56134235 13.15328533 11 6 C7.41456728 3.78771172 4.15917236 2.61164299 0 2 C0 1.34 0 0.68 0 0 Z " fill="#F7F7F7" transform="translate(149,167)"/>
<path d="M0 0 C4.62 0 9.24 0 14 0 C14.0093457 1.27117676 14.01869141 2.54235352 14.02832031 3.85205078 C14.0682865 8.58238362 14.13406414 13.31207062 14.20751953 18.04199219 C14.23569066 20.08650395 14.25692435 22.13112384 14.27099609 24.17578125 C14.29247887 27.12035322 14.3391569 30.06363041 14.390625 33.0078125 C14.39185364 33.9174173 14.39308228 34.82702209 14.39434814 35.76419067 C14.52485823 41.45910957 15.29621744 44.61384997 19 49 C22.30321138 51.39198065 26.01633287 51.5403461 30 52 C30 52.66 30 53.32 30 54 C14.82 54 -0.36 54 -16 54 C-16 53.34 -16 52.68 -16 52 C-15.32453125 51.84144531 -14.6490625 51.68289063 -13.953125 51.51953125 C-8.46884607 50.08505945 -5.02558262 49.13033575 -2 44 C-0.86980573 41.73961146 -0.84731043 40.42881174 -0.79467773 37.91748047 C-0.77473251 37.07675995 -0.75478729 36.23603943 -0.73423767 35.36984253 C-0.70916893 34.00727829 -0.70916893 34.00727829 -0.68359375 32.6171875 C-0.6524221 31.22308151 -0.6524221 31.22308151 -0.62062073 29.80081177 C-0.55512354 26.8256179 -0.49623948 23.85033423 -0.4375 20.875 C-0.39431494 18.86066772 -0.35070066 16.84634459 -0.30664062 14.83203125 C-0.19944197 9.88811337 -0.09817499 4.94410497 0 0 Z " fill="#F7F7F7" transform="translate(165,261)"/>
<path d="M0 0 C4.34715294 3.66268726 8.52393032 7.43566265 12.625 11.375 C17.79241943 16.23683726 23.24788905 19.90315903 29.3828125 23.44140625 C32 25 32 25 34 27 C29.46855021 30.02096653 25.43376336 30.1268599 20.078125 30.1328125 C18.97082031 30.13410156 17.86351562 30.13539063 16.72265625 30.13671875 C15.57667969 30.13285156 14.43070312 30.12898438 13.25 30.125 C12.08855469 30.12886719 10.92710937 30.13273437 9.73046875 30.13671875 C8.62832031 30.13542969 7.52617187 30.13414062 6.390625 30.1328125 C5.38032227 30.13168457 4.37001953 30.13055664 3.32910156 30.12939453 C1 30 1 30 0 29 C-0.08775605 26.85441173 -0.10695219 24.70595579 -0.09765625 22.55859375 C-0.09443359 21.25341797 -0.09121094 19.94824219 -0.08789062 18.60351562 C-0.07953401 17.2148431 -0.07106905 15.82617123 -0.0625 14.4375 C-0.05748666 13.04492344 -0.05292347 11.65234519 -0.04882812 10.25976562 C-0.03699434 6.8398013 -0.0205088 3.41992156 0 0 Z " fill="#070707" transform="translate(259,321)"/>
<path d="M0 0 C6.75 0.75 6.75 0.75 9 3 C8.75 6.0625 8.75 6.0625 8 9 C5.29120665 10.35439668 2.99066732 10.06501451 0 10 C0 6.7 0 3.4 0 0 Z " fill="#9D9D9D" transform="translate(315,244)"/>
<path d="M0 0 C2.31 0.33 4.62 0.66 7 1 C7.09765625 7.15234375 7.09765625 7.15234375 7 9 C6 10 6 10 2.9375 10.0625 C1.968125 10.041875 0.99875 10.02125 0 10 C0 6.7 0 3.4 0 0 Z " fill="#878787" transform="translate(247,244)"/>
<path d="M0 0 C2.7839183 1.39195915 2.97898997 3.15575779 4 6 C5.50559539 4.03617993 6.89131683 2.21736634 8 0 C8.66 0 9.32 0 10 0 C10 3.3 10 6.6 10 10 C9.34 10 8.68 10 8 10 C7.67 9.01 7.34 8.02 7 7 C6.01 7.99 5.02 8.98 4 10 C3.34 9.01 2.68 8.02 2 7 C1.67 7.99 1.34 8.98 1 10 C0.34 9.67 -0.32 9.34 -1 9 C-0.67 6.03 -0.34 3.06 0 0 Z " fill="#A3A3A3" transform="translate(195,244)"/>
<path d="M0 0 C2.97 0.495 2.97 0.495 6 1 C5.67 3.64 5.34 6.28 5 9 C5.66 9.33 6.32 9.66 7 10 C6.01 10 5.02 10 4 10 C3.34 9.01 2.68 8.02 2 7 C1.34 7.99 0.68 8.98 0 10 C0 6.7 0 3.4 0 0 Z " fill="#959595" transform="translate(353,244)"/>
<path d="M0 0 C2.475 0.495 2.475 0.495 5 1 C5.93423645 4.01031744 6.04449911 4.86650268 5 8 C5.66 8.66 6.32 9.32 7 10 C5.0625 9.625 5.0625 9.625 3 9 C2.67 8.34 2.34 7.68 2 7 C1.34 7.99 0.68 8.98 0 10 C0 6.7 0 3.4 0 0 Z " fill="#929292" transform="translate(122,244)"/>
<path d="M0 0 C1.98 0 3.96 0 6 0 C6 0.66 6 1.32 6 2 C4.68 2 3.36 2 2 2 C2 2.99 2 3.98 2 5 C3.32 5.33 4.64 5.66 6 6 C4.68 6 3.36 6 2 6 C2 6.99 2 7.98 2 9 C3.32 9.33 4.64 9.66 6 10 C4.02 10 2.04 10 0 10 C0 6.7 0 3.4 0 0 Z " fill="#9B9B9B" transform="translate(335,244)"/>
<path d="M0 0 C2.475 0.495 2.475 0.495 5 1 C5 2.65 5 4.3 5 6 C3.35 6.33 1.7 6.66 0 7 C0 4.69 0 2.38 0 0 Z " fill="#020202" transform="translate(317,246)"/>
<path d="M0 0 C2.31 0.33 4.62 0.66 7 1 C7 1.99 7 2.98 7 4 C5.35 4.33 3.7 4.66 2 5 C1.67 6.65 1.34 8.3 1 10 C0.67 10 0.34 10 0 10 C0 6.7 0 3.4 0 0 Z " fill="#636363" transform="translate(247,244)"/>
<path d="M0 0 C3.375 -0.1875 3.375 -0.1875 7 0 C7.66 0.99 8.32 1.98 9 3 C6.03 3 3.06 3 0 3 C0 2.01 0 1.02 0 0 Z " fill="#BEBEBE" transform="translate(266,271)"/>
</svg>
